<?xml version="1.0" standalone="no"?>
<!DOCTYPE svg PUBLIC "-//W3C//DTD SVG 20010904//EN"
 "http://www.w3.org/TR/2001/REC-SVG-20010904/DTD/svg10.dtd">
<svg version="1.0" xmlns="http://www.w3.org/2000/svg"
 width="512.000000pt" height="512.000000pt" viewBox="0 0 512.000000 512.000000"
 preserveAspectRatio="xMidYMid meet">
<metadata>
Created by potrace 1.14, written by Peter Selinger 2001-2017
</metadata>
<g transform="translate(0.000000,512.000000) scale(0.100000,-0.100000)"
fill="#000000" stroke="none">
<path d="M2525 4489 c-160 -23 -375 -111 -500 -204 -143 -107 -275 -263 -353
-420 -34 -69 -75 -192 -92 -283 -7 -34 -16 -61 -19 -60 -4 2 -40 22 -81 45
-74 41 -207 91 -265 100 -16 2 -45 8 -63 13 -18 5 -86 9 -152 9 -465 0 -844
-295 -973 -757 -18 -65 -21 -103 -20 -242 0 -189 17 -271 79 -398 54 -110 131
-160 250 -161 119 -2 225 77 259 193 20 67 19 105 -5 175 -45 129 -51 222 -21
320 39 128 114 215 237 277 160 80 360 49 497 -76 126 -115 174 -309 118 -472
-24 -71 -56 -120 -121 -188 -102 -107 -163 -221 -185 -345 -25 -145 -7 -265
66 -430 62 -141 134 -202 250 -212 114 -11 217 46 270 149 35 67 33 172 -5
263 -17 39 -33 75 -37 80 -4 6 -6 20 -4 30 2 11 4 26 4 32 1 7 26 39 56 70
137 143 232 335 271 543 23 127 2 357 -45 481 -11 27 -15 49 -9 49 5 0 34 12
64 27 113 55 173 148 180 281 9 149 62 269 156 358 208 196 510 192 710 -9
196 -198 189 -523 -16 -715 -64 -59 -74 -65 -220 -132 -219 -99 -362 -274
-417 -508 -16 -67 -20 -299 -7 -352 24 -93 80 -160 178 -210 68 -35 177 -34
252 3 62 31 115 84 149 149 19 35 24 65 28 168 7 157 13 166 118 209 137 55
262 139 366 245 122 124 204 252 263 411 86 234 427 319 644 160 151 -111 220
-295 175 -468 -34 -130 -112 -232 -222 -289 -73 -38 -90 -43 -168 -53 -244
-31 -429 -155 -531 -356 -42 -84 -87 -263 -81 -328 19 -234 296 -333 463 -167
51 52 60 70 99 208 18 67 38 84 110 93 453 58 802 386 880 826 12 73 13 282 0
346 -38 197 -142 391 -283 530 -231 230 -544 331 -857 278 -53 -9 -122 -25
-153 -36 -55 -19 -71 -16 -72 15 0 5 -21 52 -47 105 -187 385 -561 627 -983
636 -69 1 -152 -1 -185 -6z"/>
<path d="M2600 1477 c-133 -38 -223 -159 -224 -302 -1 -174 132 -305 311 -306
81 -1 156 33 217 97 148 154 95 409 -102 496 -56 25 -143 32 -202 15z"/>
<path d="M1733 1169 c-258 -46 -308 -399 -73 -519 133 -68 299 -11 366 127 98
199 -74 430 -293 392z"/>
<path d="M3567 1169 c-94 -15 -181 -88 -212 -178 -75 -222 133 -432 348 -351
122 46 188 145 183 273 -7 164 -154 282 -319 256z"/>
</g>
</svg>
